<svg width="25" height="25" fill="none" xmlns="http://www.w3.org/2000/svg"><path d="M12.5 20.373a.926.926 0 0 0-.925.925v2.777a.926.926 0 0 0 1.85 0v-2.777a.926.926 0 0 0-.925-.925ZM12.5 0a.926.926 0 0 0-.925.925v2.777a.926.926 0 0 0 1.85 0V.925A.926.926 0 0 0 12.5 0ZM4.627 12.5a.926.926 0 0 0-.925-.925H.925a.926.926 0 0 0 0 1.85h2.777c.51 0 .925-.414.925-.925Zm19.447-.925h-2.776a.926.926 0 0 0 0 1.85h2.777a.926.926 0 0 0 0-1.85ZM6.28 17.794a.923.923 0 0 0-.655.27L3.66 20.03a.923.923 0 0 0-.27.655.923.923 0 0 0 .925.926c.246 0 .48-.097.655-.27l1.965-1.966c.36-.36.36-.95 0-1.31a.923.923 0 0 0-.655-.27Zm12.44-10.59c.246 0 .48-.096.655-.27L21.34 4.97a.923.923 0 0 0 .27-.655.923.923 0 0 0-.925-.926.923.923 0 0 0-.655.27l-1.965 1.966a.923.923 0 0 0-.27.655.923.923 0 0 0 .925.926ZM4.97 3.66a.923.923 0 0 0-.655-.27.923.923 0 0 0-.926.925c0 .246.097.48.27.655l1.966 1.965c.174.174.409.27.655.27a.923.923 0 0 0 .926-.925.923.923 0 0 0-.27-.655L4.97 3.66Zm14.405 14.405a.923.923 0 0 0-.655-.27.923.923 0 0 0-.655.27c-.36.36-.36.95 0 1.31l1.965 1.965c.174.174.409.27.655.27a.923.923 0 0 0 .926-.925.923.923 0 0 0-.27-.655l-1.966-1.965ZM12.5 6.73c-3.18 0-5.77 2.59-5.77 5.769 0 3.18 2.59 5.77 5.77 5.77 3.18 0 5.77-2.59 5.77-5.77 0-3.18-2.59-5.77-5.77-5.77Z" fill="#fff"/></svg>